<svg enable-background="new 0 0 36 32" height="32" viewBox="0 0 36 32" width="36" xmlns="http://www.w3.org/2000/svg"><path d="m22.22 20.726c-.157-.024-.317.038-.425.155-.109.116-.156.278-.126.435.276 1.45 1.205 3.44 4.057 4.679.338.146.86.26 1.522.403 2.478.536 6.622 1.434 7.64 5.232.06.223.262.37.483.37.043 0 .086-.006.13-.017.267-.072.425-.346.354-.613-1.177-4.387-5.872-5.404-8.395-5.95-.584-.127-1.089-.236-1.336-.344-1.714-.744-2.821-1.848-3.301-3.286 4.762.354 6.918-1.543 7.013-1.629.118-.107.179-.266.161-.425s-.11-.3-.249-.38c-2.748-1.57-2.748-6.995-2.748-9.038 0-5.713-3.848-10.242-8.781-10.313-.014-.001-.121-.003-.141-.003 0 0 0 0-.001 0-5.005.028-9.077 4.562-9.077 10.108 0 2.043 0 7.469-2.748 9.038-.145.083-.238.232-.251.398-.012.166.06.328.191.431.138.107 3.188 2.441 6.941 1.732-.502 1.378-1.594 2.438-3.258 3.161-.241.105-.721.22-1.277.352-2.54.604-7.269 1.729-8.453 6.147-.071.268.087.541.354.613.271.067.541-.088.613-.354 1.029-3.844 5.217-4.839 7.718-5.435.627-.149 1.122-.267 1.444-.406 2.852-1.239 3.78-3.229 4.057-4.679.033-.173-.027-.351-.159-.467-.131-.117-.312-.157-.482-.104-2.707.852-5.208-.32-6.301-.97 2.611-2.186 2.611-7.217 2.611-9.457 0-4.997 3.626-9.083 8.12-9.11.005 0 .102.006.106.006 4.432.063 7.774 4.066 7.774 9.312 0 2.241 0 7.283 2.622 9.469-.903.516-2.962 1.351-6.402.939z" fill="#828282"/></svg>